{
  "accessors": [
    {
      "bufferView": 2,
      "componentType": 5126,
      "count": 64174,
      "max": [
        0.08893699944019318,
        0.1024089977145195,
        0.0927020013332367
      ],
      "min": [
        -0.13120700418949127,
        -0.1372860074043274,
        -0.00443200021982193
      ],
      "type": "VEC3"
    },
    {
      "bufferView": 2,
      "byteOffset": 770088,
      "componentType": 5126,
      "count": 64174,
      "max": [
        0.9999988079071045,
        0.9999970197677612,
        0.9999969005584717
      ],
      "min": [
        -0.9999359846115112,
        -0.9996493458747864,
        -0.9999998807907104
      ],
      "type": "VEC3"
    },
    {
      "bufferView": 3,
      "componentType": 5126,
      "count": 64174,
      "max": [
        1.0,
        0.9996225237846375,
        1.0,
        1.0
      ],
      "min": [
        -1.0,
        -0.9997392296791077,
        -1.0,
        -1.0
      ],
      "type": "VEC4"
    },
    {
      "bufferView": 1,
      "componentType": 5126,
      "count": 64174,
      "max": [
        0.9997379779815674,
        0.9978029727935791
      ],
      "min": [
        0.00024399999529123306,
        0.00026500000967644155
      ],
      "type": "VEC2"
    },
    {
      "bufferView": 0,
      "componentType": 5125,
      "count": 299988,
      "type": "SCALAR"
    }
  ],
  "asset": {
    "extras": {
      "author": "Second Studio (https://sketchfab.com/kayaaku)",
      "license": "CC-BY-4.0 (http://creativecommons.org/licenses/by/4.0/)",
      "source": "https://sketchfab.com/3d-models/adidas-shoes-e431c192455f4df2b79575ece66b2bd8",
      "title": "Adidas Shoes"
    },
    "generator": "Sketchfab-13.58.0",
    "version": "2.0"
  },
  "bufferViews": [
    {
      "buffer": 0,
      "byteLength": 1199952,
      "name": "floatBufferViews",
      "target": 34963
    },
    {
      "buffer": 0,
      "byteLength": 513392,
      "byteOffset": 1199952,
      "byteStride": 8,
      "name": "floatBufferViews",
      "target": 34962
    },
    {
      "buffer": 0,
      "byteLength": 1540176,
      "byteOffset": 1713344,
      "byteStride": 12,
      "name": "floatBufferViews",
      "target": 34962
    },
    {
      "buffer": 0,
      "byteLength": 1026784,
      "byteOffset": 3253520,
      "byteStride": 16,
      "name": "floatBufferViews",
      "target": 34962
    }
  ],
  "buffers": [
    {
      "byteLength": 4280304,
      "uri": "scene.bin"
    }
  ],
  "images": [
    {
      "uri": "textures/model_u1_v1_baseColor.jpeg"
    },
    {
      "uri": "textures/model_u1_v1_normal.png"
    }
  ],
  "materials": [
    {
      "doubleSided": true,
      "name": "model_u1_v1",
      "normalTexture": {
        "index": 1
      },
      "pbrMetallicRoughness": {
        "baseColorTexture": {
          "index": 0
        },
        "metallicFactor": 0.0
      }
    }
  ],
  "meshes": [
    {
      "name": "Object_0",
      "primitives": [
        {
          "attributes": {
            "NORMAL": 1,
            "POSITION": 0,
            "TANGENT": 2,
            "TEXCOORD_0": 3
          },
          "indices": 4,
          "material": 0,
          "mode": 4
        }
      ]
    }
  ],
  "nodes": [
    {
      "children": [
        1
      ],
      "matrix": [
        1.0,
        0.0,
        0.0,
        0.0,
        0.0,
        2.220446049250313e-16,
        -1.0,
        0.0,
        0.0,
        1.0,
        2.220446049250313e-16,
        0.0,
        0.0,
        0.0,
        0.0,
        1.0
      ],
      "name": "Sketchfab_model"
    },
    {
      "children": [
        2
      ],
      "name": "model.obj.cleaner.materialmerger.gles"
    },
    {
      "mesh": 0,
      "name": "Object_2"
    }
  ],
  "samplers": [
    {
      "magFilter": 9729,
      "minFilter": 9987,
      "wrapS": 10497,
      "wrapT": 10497
    }
  ],
  "scene": 0,
  "scenes": [
    {
      "name": "Sketchfab_Scene",
      "nodes": [
        0
      ]
    }
  ],
  "textures": [
    {
      "sampler": 0,
      "source": 0
    },
    {
      "sampler": 0,
      "source": 1
    }
  ]
}
