{
  "accessors": [
    {
      "bufferView": 2,
      "componentType": 5126,
      "count": 350,
      "max": [
        1.0231349468231201,
        2.071712017059326,
        1.9481500387191772
      ],
      "min": [
        -0.6189010143280029,
        2.0658740997314453,
        1.108144998550415
      ],
      "type": "VEC3"
    },
    {
      "bufferView": 2,
      "byteOffset": 4200,
      "componentType": 5126,
      "count": 350,
      "max": [
        0.9999971389770508,
        0.9999995231628418,
        0.9999995231628418
      ],
      "min": [
        -0.9999971389770508,
        -0.9999995231628418,
        -0.9999995231628418
      ],
      "type": "VEC3"
    },
    {
      "bufferView": 1,
      "componentType": 5126,
      "count": 350,
      "max": [
        0.2646790146827698,
        -0.21210800111293793
      ],
      "min": [
        -0.7767710089683533,
        -1.8541450500488281
      ],
      "type": "VEC2"
    },
    {
      "bufferView": 0,
      "componentType": 5125,
      "count": 1170,
      "type": "SCALAR"
    },
    {
      "bufferView": 2,
      "byteOffset": 8400,
      "componentType": 5126,
      "count": 144,
      "max": [
        0.930383026599884,
        2.0716071128845215,
        1.843150019645691
      ],
      "min": [
        -0.5261449813842773,
        2.06597900390625,
        1.2131450176239014
      ],
      "type": "VEC3"
    },
    {
      "bufferView": 2,
      "byteOffset": 10128,
      "componentType": 5126,
      "count": 144,
      "max": [
        0.0,
        0.9999995231628418,
        0.000999999581836164
      ],
      "min": [
        0.0,
        -0.9999995231628418,
        -0.000999999581836164
      ],
      "type": "VEC3"
    },
    {
      "bufferView": 1,
      "byteOffset": 2800,
      "componentType": 5126,
      "count": 144,
      "max": [
        0.1344970017671585,
        -0.30486398935317993
      ],
      "min": [
        -0.646589994430542,
        -1.7613919973373413
      ],
      "type": "VEC2"
    },
    {
      "bufferView": 0,
      "byteOffset": 4680,
      "componentType": 5125,
      "count": 432,
      "type": "SCALAR"
    },
    {
      "bufferView": 2,
      "byteOffset": 11856,
      "componentType": 5126,
      "count": 3578,
      "max": [
        1.0231349468231201,
        2.076711893081665,
        1.9481550455093384
      ],
      "min": [
        -0.6189010143280029,
        2.055875062942505,
        1.1081349849700928
      ],
      "type": "VEC3"
    },
    {
      "bufferView": 2,
      "byteOffset": 54792,
      "componentType": 5126,
      "count": 3578,
      "max": [
        0.8842467665672302,
        0.6475890874862671,
        0.873820424079895
      ],
      "min": [
        -0.8842467665672302,
        -0.6475890874862671,
        -0.873820424079895
      ],
      "type": "VEC3"
    },
    {
      "bufferView": 1,
      "byteOffset": 3952,
      "componentType": 5126,
      "count": 3578,
      "max": [
        0.2646790146827698,
        -0.21210800111293793
      ],
      "min": [
        -0.7767710089683533,
        -1.8541450500488281
      ],
      "type": "VEC2"
    },
    {
      "bufferView": 0,
      "byteOffset": 6408,
      "componentType": 5125,
      "count": 5856,
      "type": "SCALAR"
    },
    {
      "bufferView": 2,
      "byteOffset": 97728,
      "componentType": 5126,
      "count": 8134,
      "max": [
        -2.0499019622802734,
        2.178287982940674,
        1.0966310501098633
      ],
      "min": [
        -2.1750009059906006,
        2.1201789379119873,
        0.9345399737358093
      ],
      "type": "VEC3"
    },
    {
      "bufferView": 2,
      "byteOffset": 195336,
      "componentType": 5126,
      "count": 8134,
      "max": [
        1.0,
        1.0,
        1.0
      ],
      "min": [
        -1.0,
        -1.0,
        -1.0
      ],
      "type": "VEC3"
    },
    {
      "bufferView": 1,
      "byteOffset": 32576,
      "componentType": 5126,
      "count": 8134,
      "max": [
        1.2303659915924072,
        1.8057210445404053
      ],
      "min": [
        -0.7620880007743835,
        -0.024178000167012215
      ],
      "type": "VEC2"
    },
    {
      "bufferView": 0,
      "byteOffset": 29832,
      "componentType": 5125,
      "count": 26952,
      "type": "SCALAR"
    },
    {
      "bufferView": 2,
      "byteOffset": 292944,
      "componentType": 5126,
      "count": 65532,
      "max": [
        -2.861315965652466,
        2.0,
        4.390148162841797
      ],
      "min": [
        -10.146538734436035,
        -2.233170986175537,
        4.15493106842041
      ],
      "type": "VEC3"
    },
    {
      "bufferView": 2,
      "byteOffset": 1079328,
      "componentType": 5126,
      "count": 65532,
      "max": [
        1.0,
        1.0,
        1.0
      ],
      "min": [
        -1.0,
        -1.0,
        -1.0
      ],
      "type": "VEC3"
    },
    {
      "bufferView": 3,
      "componentType": 5126,
      "count": 65532,
      "max": [
        1.0,
        1.0,
        1.0,
        1.0
      ],
      "min": [
        -1.0,
        -1.0,
        -0.9987446665763855,
        -1.0
      ],
      "type": "VEC4"
    },
    {
      "bufferView": 1,
      "byteOffset": 97648,
      "componentType": 5126,
      "count": 65532,
      "max": [
        5.265048980712891,
        14.062094688415527
      ],
      "min": [
        -20.92928695678711,
        -4.416093826293945
      ],
      "type": "VEC2"
    },
    {
      "bufferView": 0,
      "byteOffset": 137640,
      "componentType": 5125,
      "count": 185388,
      "type": "SCALAR"
    },
    {
      "bufferView": 2,
      "byteOffset": 1865712,
      "componentType": 5126,
      "count": 65532,
      "max": [
        -2.861315965652466,
        1.9999239444732666,
        4.390148162841797
      ],
      "min": [
        -10.146282196044922,
        -2.2330939769744873,
        4.1550068855285645
      ],
      "type": "VEC3"
    },
    {
      "bufferView": 2,
      "byteOffset": 2652096,
      "componentType": 5126,
      "count": 65532,
      "max": [
        1.0,
        1.0,
        1.0
      ],
      "min": [
        -1.0,
        -1.0,
        -1.0
      ],
      "type": "VEC3"
    },
    {
      "bufferView": 3,
      "byteOffset": 1048512,
      "componentType": 5126,
      "count": 65532,
      "max": [
        1.0,
        1.0,
        0.9530888199806213,
        1.0
      ],
      "min": [
        -1.0,
        -1.0,
        -0.9480461478233337,
        -1.0
      ],
      "type": "VEC4"
    },
    {
      "bufferView": 1,
      "byteOffset": 621904,
      "componentType": 5126,
      "count": 65532,
      "max": [
        4.466341972351074,
        14.062017440795898
      ],
      "min": [
        -20.927513122558594,
        -2.6162350177764893
      ],
      "type": "VEC2"
    },
    {
      "bufferView": 0,
      "byteOffset": 879192,
      "componentType": 5125,
      "count": 168984,
      "type": "SCALAR"
    },
    {
      "bufferView": 2,
      "byteOffset": 3438480,
      "componentType": 5126,
      "count": 3916,
      "max": [
        -2.861315965652466,
        1.267825961112976,
        4.390148162841797
      ],
      "min": [
        -9.11087417602539,
        0.9678260087966919,
        4.360147953033447
      ],
      "type": "VEC3"
    },
    {
      "bufferView": 2,
      "byteOffset": 3485472,
      "componentType": 5126,
      "count": 3916,
      "max": [
        1.0,
        1.0,
        1.0
      ],
      "min": [
        -1.0,
        -1.0,
        -1.0
      ],
      "type": "VEC3"
    },
    {
      "bufferView": 3,
      "byteOffset": 2097024,
      "componentType": 5126,
      "count": 3916,
      "max": [
        1.0,
        1.0,
        0.9139540195465088,
        1.0
      ],
      "min": [
        -1.0,
        -1.0,
        -0.8937032222747803,
        -1.0
      ],
      "type": "VEC4"
    },
    {
      "bufferView": 1,
      "byteOffset": 1146160,
      "componentType": 5126,
      "count": 3916,
      "max": [
        -10.748590469360352,
        10.045578956604004
      ],
      "min": [
        -18.378202438354492,
        6.744308948516846
      ],
      "type": "VEC2"
    },
    {
      "bufferView": 0,
      "byteOffset": 1555128,
      "componentType": 5125,
      "count": 9156,
      "type": "SCALAR"
    },
    {
      "bufferView": 2,
      "byteOffset": 3532464,
      "componentType": 5126,
      "count": 232,
      "max": [
        7.259641170501709,
        2.2193660736083984,
        3.438481092453003
      ],
      "min": [
        -3.1520190238952637,
        1.996000051498413,
        0.0
      ],
      "type": "VEC3"
    },
    {
      "bufferView": 2,
      "byteOffset": 3535248,
      "componentType": 5126,
      "count": 232,
      "max": [
        1.0,
        1.0,
        1.0
      ],
      "min": [
        -1.0,
        -1.0,
        -1.0
      ],
      "type": "VEC3"
    },
    {
      "bufferView": 3,
      "byteOffset": 2159680,
      "componentType": 5126,
      "count": 232,
      "max": [
        1.0,
        1.0,
        1.0,
        1.0
      ],
      "min": [
        -1.0,
        -1.0,
        0.0,
        -1.0
      ],
      "type": "VEC4"
    },
    {
      "bufferView": 1,
      "byteOffset": 1177488,
      "componentType": 5126,
      "count": 232,
      "max": [
        2.3260979652404785,
        1.079327940940857
      ],
      "min": [
        -3.59995698928833,
        -1.079327940940857
      ],
      "type": "VEC2"
    },
    {
      "bufferView": 0,
      "byteOffset": 1591752,
      "componentType": 5125,
      "count": 432,
      "type": "SCALAR"
    },
    {
      "bufferView": 2,
      "byteOffset": 3538032,
      "componentType": 5126,
      "count": 8284,
      "max": [
        7.263088226318359,
        2.0745689868927,
        1.309404969215393
      ],
      "min": [
        1.7628949880599976,
        1.8244739770889282,
        0.0
      ],
      "type": "VEC3"
    },
    {
      "bufferView": 2,
      "byteOffset": 3637440,
      "componentType": 5126,
      "count": 8284,
      "max": [
        1.0,
        1.0,
        0.9996408820152283
      ],
      "min": [
        -1.0,
        -1.0,
        -1.0
      ],
      "type": "VEC3"
    },
    {
      "bufferView": 3,
      "byteOffset": 2163392,
      "componentType": 5126,
      "count": 8284,
      "max": [
        1.0,
        1.0,
        1.0,
        1.0
      ],
      "min": [
        -1.0,
        -1.0,
        -1.0,
        -1.0
      ],
      "type": "VEC4"
    },
    {
      "bufferView": 1,
      "byteOffset": 1179344,
      "componentType": 5126,
      "count": 8284,
      "max": [
        2.0268630981445313,
        2.0268630981445313
      ],
      "min": [
        -2.0256600379943848,
        -2.0268640518188477
      ],
      "type": "VEC2"
    },
    {
      "bufferView": 0,
      "byteOffset": 1593480,
      "componentType": 5125,
      "count": 29874,
      "type": "SCALAR"
    },
    {
      "bufferView": 2,
      "byteOffset": 3736848,
      "componentType": 5126,
      "count": 10341,
      "max": [
        1.2308809757232666,
        2.1353940963745117,
        2.1621570587158203
      ],
      "min": [
        -0.8331210017204285,
        1.8246450424194336,
        0.0
      ],
      "type": "VEC3"
    },
    {
      "bufferView": 2,
      "byteOffset": 3860940,
      "componentType": 5126,
      "count": 10341,
      "max": [
        1.0,
        1.0,
        1.0
      ],
      "min": [
        -1.0,
        -1.0,
        -1.0
      ],
      "type": "VEC3"
    },
    {
      "bufferView": 3,
      "byteOffset": 2295936,
      "componentType": 5126,
      "count": 10341,
      "max": [
        1.0,
        1.0,
        1.0,
        1.0
      ],
      "min": [
        -1.0,
        -1.0,
        -1.0,
        -1.0
      ],
      "type": "VEC4"
    },
    {
      "bufferView": 1,
      "byteOffset": 1245616,
      "componentType": 5126,
      "count": 10341,
      "max": [
        3.070435047149658,
        2.0303549766540527
      ],
      "min": [
        -2.02915096282959,
        -2.0303549766540527
      ],
      "type": "VEC2"
    },
    {
      "bufferView": 0,
      "byteOffset": 1712976,
      "componentType": 5125,
      "count": 28131,
      "type": "SCALAR"
    },
    {
      "bufferView": 2,
      "byteOffset": 3985032,
      "componentType": 5126,
      "count": 17424,
      "max": [
        -1.0738170146942139,
        2.225900888442993,
        2.602989912033081
      ],
      "min": [
        -3.1520190238952637,
        1.8246450424194336,
        0.0
      ],
      "type": "VEC3"
    },
    {
      "bufferView": 2,
      "byteOffset": 4194120,
      "componentType": 5126,
      "count": 17424,
      "max": [
        1.0,
        1.0,
        1.0
      ],
      "min": [
        -1.0,
        -1.0,
        -1.0
      ],
      "type": "VEC3"
    },
    {
      "bufferView": 3,
      "byteOffset": 2461392,
      "componentType": 5126,
      "count": 17424,
      "max": [
        1.0,
        0.9999999403953552,
        1.0,
        1.0
      ],
      "min": [
        -1.0,
        -1.0,
        -1.0,
        -1.0
      ],
      "type": "VEC4"
    },
    {
      "bufferView": 1,
      "byteOffset": 1328344,
      "componentType": 5126,
      "count": 17424,
      "max": [
        1.0705649852752686,
        1.5287929773330688
      ],
      "min": [
        -0.7922430038452148,
        -0.16950200498104095
      ],
      "type": "VEC2"
    },
    {
      "bufferView": 0,
      "byteOffset": 1825500,
      "componentType": 5125,
      "count": 45207,
      "type": "SCALAR"
    }
  ],
  "asset": {
    "extras": {
      "author": "slls666 (https://sketchfab.com/slls666)",
      "license": "CC-BY-4.0 (http://creativecommons.org/licenses/by/4.0/)",
      "source": "https://sketchfab.com/3d-models/classic-modular-walls-ceiling-fixed-88e03bd4f5ab4320b9b06d4811fa1466",
      "title": "Classic Modular Walls Ceiling (fixed)"
    },
    "generator": "Sketchfab-12.58.1",
    "version": "2.0"
  },
  "bufferViews": [
    {
      "buffer": 0,
      "byteLength": 2006328,
      "name": "floatBufferViews",
      "target": 34963
    },
    {
      "buffer": 0,
      "byteLength": 1467736,
      "byteOffset": 2006328,
      "byteStride": 8,
      "name": "floatBufferViews",
      "target": 34962
    },
    {
      "buffer": 0,
      "byteLength": 4403208,
      "byteOffset": 3474064,
      "byteStride": 12,
      "name": "floatBufferViews",
      "target": 34962
    },
    {
      "buffer": 0,
      "byteLength": 2740176,
      "byteOffset": 7877272,
      "byteStride": 16,
      "name": "floatBufferViews",
      "target": 34962
    }
  ],
  "buffers": [
    {
      "byteLength": 10617448,
      "uri": "scene.bin"
    }
  ],
  "extensionsUsed": [
    "KHR_materials_transmission"
  ],
  "images": [
    {
      "uri": "textures/Wall_baseColor.png"
    },
    {
      "uri": "textures/Wall_metallicRoughness.png"
    },
    {
      "uri": "textures/Wall_normal.png"
    },
    {
      "uri": "textures/wood_2_baseColor.png"
    },
    {
      "uri": "textures/wood_2_metallicRoughness.png"
    },
    {
      "uri": "textures/wood_2_normal.png"
    }
  ],
  "materials": [
    {
      "doubleSided": true,
      "name": "Wall",
      "normalTexture": {
        "index": 2
      },
      "pbrMetallicRoughness": {
        "baseColorTexture": {
          "index": 0
        },
        "metallicFactor": 0.0,
        "metallicRoughnessTexture": {
          "index": 1
        },
        "roughnessFactor": 0.5733265948617393
      }
    },
    {
      "alphaMode": "BLEND",
      "doubleSided": true,
      "extensions": {
        "KHR_materials_transmission": {
          "transmissionFactor": 1.0
        }
      },
      "name": "glass",
      "pbrMetallicRoughness": {
        "baseColorFactor": [
          0.5698628399202856,
          0.8961126355631589,
          0.940665205793594,
          0.25
        ],
        "metallicFactor": 0.0,
        "roughnessFactor": 0.7880318375580224
      }
    },
    {
      "alphaMode": "BLEND",
      "doubleSided": true,
      "extensions": {
        "KHR_materials_transmission": {
          "transmissionFactor": 0.4203926687847306
        }
      },
      "name": "glass_2",
      "pbrMetallicRoughness": {
        "baseColorFactor": [
          0.2527695292606712,
          0.11404760880306726,
          0.0031431141129377536,
          0.5796073312152694
        ],
        "metallicFactor": 0.0
      }
    },
    {
      "doubleSided": true,
      "name": "iron",
      "pbrMetallicRoughness": {
        "baseColorFactor": [
          0.000262,
          0.000262,
          0.000262,
          1.0
        ],
        "metallicFactor": 0.0,
        "roughnessFactor": 0.8063508326896291
      }
    },
    {
      "doubleSided": true,
      "name": "metal",
      "pbrMetallicRoughness": {
        "baseColorFactor": [
          0.8,
          0.446284,
          0.128984,
          1.0
        ],
        "roughnessFactor": 0.01434105939756158
      }
    },
    {
      "doubleSided": true,
      "name": "wood_2",
      "normalTexture": {
        "index": 5
      },
      "pbrMetallicRoughness": {
        "baseColorTexture": {
          "index": 3
        },
        "metallicFactor": 0.0,
        "metallicRoughnessTexture": {
          "index": 4
        },
        "roughnessFactor": 0.4100274496699571
      }
    },
    {
      "doubleSided": true,
      "name": "wood_2.001",
      "normalTexture": {
        "index": 5
      },
      "pbrMetallicRoughness": {
        "baseColorTexture": {
          "index": 3
        },
        "metallicFactor": 0.0,
        "metallicRoughnessTexture": {
          "index": 4
        },
        "roughnessFactor": 0.33465861342759606
      }
    }
  ],
  "meshes": [
    {
      "name": "Object_0",
      "primitives": [
        {
          "attributes": {
            "NORMAL": 1,
            "POSITION": 0,
            "TEXCOORD_0": 2
          },
          "indices": 3,
          "material": 1,
          "mode": 4
        }
      ]
    },
    {
      "name": "Object_1",
      "primitives": [
        {
          "attributes": {
            "NORMAL": 5,
            "POSITION": 4,
            "TEXCOORD_0": 6
          },
          "indices": 7,
          "material": 2,
          "mode": 4
        }
      ]
    },
    {
      "name": "Object_2",
      "primitives": [
        {
          "attributes": {
            "NORMAL": 9,
            "POSITION": 8,
            "TEXCOORD_0": 10
          },
          "indices": 11,
          "material": 3,
          "mode": 4
        }
      ]
    },
    {
      "name": "Object_3",
      "primitives": [
        {
          "attributes": {
            "NORMAL": 13,
            "POSITION": 12,
            "TEXCOORD_0": 14
          },
          "indices": 15,
          "material": 4,
          "mode": 4
        }
      ]
    },
    {
      "name": "Object_4",
      "primitives": [
        {
          "attributes": {
            "NORMAL": 17,
            "POSITION": 16,
            "TANGENT": 18,
            "TEXCOORD_0": 19
          },
          "indices": 20,
          "material": 6,
          "mode": 4
        }
      ]
    },
    {
      "name": "Object_5",
      "primitives": [
        {
          "attributes": {
            "NORMAL": 22,
            "POSITION": 21,
            "TANGENT": 23,
            "TEXCOORD_0": 24
          },
          "indices": 25,
          "material": 6,
          "mode": 4
        }
      ]
    },
    {
      "name": "Object_6",
      "primitives": [
        {
          "attributes": {
            "NORMAL": 27,
            "POSITION": 26,
            "TANGENT": 28,
            "TEXCOORD_0": 29
          },
          "indices": 30,
          "material": 6,
          "mode": 4
        }
      ]
    },
    {
      "name": "Object_7",
      "primitives": [
        {
          "attributes": {
            "NORMAL": 32,
            "POSITION": 31,
            "TANGENT": 33,
            "TEXCOORD_0": 34
          },
          "indices": 35,
          "material": 0,
          "mode": 4
        }
      ]
    },
    {
      "name": "Object_8",
      "primitives": [
        {
          "attributes": {
            "NORMAL": 37,
            "POSITION": 36,
            "TANGENT": 38,
            "TEXCOORD_0": 39
          },
          "indices": 40,
          "material": 5,
          "mode": 4
        }
      ]
    },
    {
      "name": "Object_9",
      "primitives": [
        {
          "attributes": {
            "NORMAL": 42,
            "POSITION": 41,
            "TANGENT": 43,
            "TEXCOORD_0": 44
          },
          "indices": 45,
          "material": 5,
          "mode": 4
        }
      ]
    },
    {
      "name": "Object_10",
      "primitives": [
        {
          "attributes": {
            "NORMAL": 47,
            "POSITION": 46,
            "TANGENT": 48,
            "TEXCOORD_0": 49
          },
          "indices": 50,
          "material": 5,
          "mode": 4
        }
      ]
    }
  ],
  "nodes": [
    {
      "children": [
        1
      ],
      "matrix": [
        1.0,
        0.0,
        0.0,
        0.0,
        0.0,
        2.220446049250313e-16,
        -1.0,
        0.0,
        0.0,
        1.0,
        2.220446049250313e-16,
        0.0,
        0.0,
        0.0,
        0.0,
        1.0
      ],
      "name": "Sketchfab_model"
    },
    {
      "children": [
        2,
        3,
        4,
        5,
        6,
        7,
        8,
        9,
        10,
        11,
        12
      ],
      "name": "modular_walls.obj.cleaner.materialmerger.gles"
    },
    {
      "mesh": 0,
      "name": "Object_2"
    },
    {
      "mesh": 1,
      "name": "Object_3"
    },
    {
      "mesh": 2,
      "name": "Object_4"
    },
    {
      "mesh": 3,
      "name": "Object_5"
    },
    {
      "mesh": 4,
      "name": "Object_6"
    },
    {
      "mesh": 5,
      "name": "Object_7"
    },
    {
      "mesh": 6,
      "name": "Object_8"
    },
    {
      "mesh": 7,
      "name": "Object_9"
    },
    {
      "mesh": 8,
      "name": "Object_10"
    },
    {
      "mesh": 9,
      "name": "Object_11"
    },
    {
      "mesh": 10,
      "name": "Object_12"
    }
  ],
  "samplers": [
    {
      "magFilter": 9729,
      "minFilter": 9987,
      "wrapS": 10497,
      "wrapT": 10497
    }
  ],
  "scene": 0,
  "scenes": [
    {
      "name": "Sketchfab_Scene",
      "nodes": [
        0
      ]
    }
  ],
  "textures": [
    {
      "sampler": 0,
      "source": 0
    },
    {
      "sampler": 0,
      "source": 1
    },
    {
      "sampler": 0,
      "source": 2
    },
    {
      "sampler": 0,
      "source": 3
    },
    {
      "sampler": 0,
      "source": 4
    },
    {
      "sampler": 0,
      "source": 5
    }
  ]
}
